<svg xmlns="http://www.w3.org/2000/svg" width="86.561" height="14.539" viewBox="0 0 86.561 14.539">
  <g id="Group_6972" data-name="Group 6972" transform="translate(-391 -5131.461)">
    <path id="star" d="M14.174,5.215,9.7,4.531,7.692.258a.474.474,0,0,0-.823,0L4.863,4.531.386,5.215a.455.455,0,0,0-.257.767L3.382,9.316l-.769,4.712a.455.455,0,0,0,.669.471l4-2.21,4,2.21a.455.455,0,0,0,.669-.471l-.769-4.712,3.252-3.333a.455.455,0,0,0-.257-.768Z" transform="translate(391 5131.442)" fill="#ffc107"/>
    <path id="star-2" data-name="star" d="M14.174,5.215,9.7,4.531,7.692.258a.474.474,0,0,0-.823,0L4.863,4.531.386,5.215a.455.455,0,0,0-.257.767L3.382,9.316l-.769,4.712a.455.455,0,0,0,.669.471l4-2.21,4,2.21a.455.455,0,0,0,.669-.471l-.769-4.712,3.252-3.333a.455.455,0,0,0-.257-.768Z" transform="translate(409 5131.442)" fill="#ffc107"/>
    <path id="star-3" data-name="star" d="M14.174,5.215,9.7,4.531,7.692.258a.474.474,0,0,0-.823,0L4.863,4.531.386,5.215a.455.455,0,0,0-.257.767L3.382,9.316l-.769,4.712a.455.455,0,0,0,.669.471l4-2.21,4,2.21a.455.455,0,0,0,.669-.471l-.769-4.712,3.252-3.333a.455.455,0,0,0-.257-.768Z" transform="translate(427 5131.442)" fill="#ffc107"/>
    <path id="star-4" data-name="star" d="M14.174,5.215,9.7,4.531,7.692.258a.474.474,0,0,0-.823,0L4.863,4.531.386,5.215a.455.455,0,0,0-.257.767L3.382,9.316l-.769,4.712a.455.455,0,0,0,.669.471l4-2.21,4,2.21a.455.455,0,0,0,.669-.471l-.769-4.712,3.252-3.333a.455.455,0,0,0-.257-.768Z" transform="translate(445 5131.442)" fill="#ffc107"/>
    <path id="star-5" data-name="star" d="M14.174,5.215,9.7,4.531,7.692.258a.474.474,0,0,0-.823,0L4.863,4.531.386,5.215a.455.455,0,0,0-.257.767L3.382,9.316l-.769,4.712a.455.455,0,0,0,.669.471l4-2.21,4,2.21a.455.455,0,0,0,.669-.471l-.769-4.712,3.252-3.333a.455.455,0,0,0-.257-.768Z" transform="translate(463 5131.442)" fill="#ffc107"/>
  </g>
</svg>
