<svg xmlns="http://www.w3.org/2000/svg" width="20" height="19" viewBox="0 0 20 19">
  <g id="Group_7025" data-name="Group 7025" transform="translate(-1526 -9)">
    <rect id="Rectangle_1245" data-name="Rectangle 1245" width="20" height="19" rx="2" transform="translate(1526 9)" fill="#fff"/>
    <g id="call" transform="translate(1529.461 13)">
      <g id="Group_7024" data-name="Group 7024" transform="translate(0.539 0)">
        <path id="Path_430" data-name="Path 430" d="M12.081,8.717,10.424,7.06a1.1,1.1,0,0,0-1.835.414,1.128,1.128,0,0,1-1.3.71A5.111,5.111,0,0,1,4.208,5.106a1.073,1.073,0,0,1,.71-1.3,1.1,1.1,0,0,0,.414-1.835L3.675.311a1.182,1.182,0,0,0-1.6,0L.952,1.436c-1.125,1.184.118,4.322,2.9,7.1s5.92,4.085,7.1,2.9l1.125-1.125A1.182,1.182,0,0,0,12.081,8.717Z" transform="translate(-0.539 0)" fill="#006238"/>
      </g>
    </g>
  </g>
</svg>
